<svg xmlns="http://www.w3.org/2000/svg" viewBox="0 0 100 100" width="100" height="100">
  <!-- Background circle -->
  <circle cx="50" cy="50" r="45" fill="#6366F1" stroke="#4F46E5" stroke-width="2"/>

  <!-- Chat bubble icon -->
  <g transform="translate(50, 50)">
    <!-- Main bubble -->
    <path d="M -20 -15 Q -20 -25 -10 -25 L 10 -25 Q 20 -25 20 -15 L 20 5 Q 20 15 10 15 L -5 15 L -12 22 L -12 15 L -10 15 Q -20 15 -20 5 Z"
          fill="white"
          stroke="none"/>

    <!-- Dots inside bubble (AI/chat indicator) -->
    <circle cx="-8" cy="-5" r="2.5" fill="#6366F1"/>
    <circle cx="0" cy="-5" r="2.5" fill="#6366F1"/>
    <circle cx="8" cy="-5" r="2.5" fill="#6366F1"/>

    <!-- Small sparkle for AI effect -->
    <path d="M 15 -18 L 16 -15 L 19 -16 L 16 -15 L 15 -12 L 14 -15 L 11 -16 L 14 -15 Z"
          fill="#FCD34D"
          opacity="0.9"/>
  </g>
</svg>
